<svg width="68" height="20" viewBox="0 0 68 20" fill="none" xmlns="http://www.w3.org/2000/svg">
<path d="M3.39995 11.92V0.999989H0.199951V15H8.39995V11.92H3.39995Z" fill="#0B0D17"/>
<path d="M16.8717 4.99999V5.93999C16.2117 5.17999 15.2317 4.71999 13.8917 4.71999C11.2717 4.71999 9.11167 7.01999 9.11167 9.99999C9.11167 12.98 11.2717 15.28 13.8917 15.28C15.2317 15.28 16.2117 14.82 16.8717 14.06V15H19.8717V4.99999H16.8717ZM14.4917 12.44C13.1117 12.44 12.1117 11.5 12.1117 9.99999C12.1117 8.49999 13.1117 7.55999 14.4917 7.55999C15.8717 7.55999 16.8717 8.49999 16.8717 9.99999C16.8717 11.5 15.8717 12.44 14.4917 12.44Z" fill="#0B0D17"/>
<path d="M27.9326 4.71999C26.6126 4.71999 25.6126 5.19999 25.0726 5.93999V4.99999H22.0726V15H25.0726V9.53999C25.0726 8.11999 25.8326 7.47999 26.9326 7.47999C27.8926 7.47999 28.6726 8.05999 28.6726 9.29999V15H31.6726V8.85999C31.6726 6.15999 29.9526 4.71999 27.9326 4.71999Z" fill="#0B0D17"/>
<path d="M40.9928 0.999989V5.93999C40.3328 5.17999 39.3528 4.71999 38.0128 4.71999C35.3928 4.71999 33.2328 7.01999 33.2328 9.99999C33.2328 12.98 35.3928 15.28 38.0128 15.28C39.3528 15.28 40.3328 14.82 40.9928 14.06V15H43.9928V0.999989H40.9928ZM38.6128 12.44C37.2328 12.44 36.2328 11.5 36.2328 9.99999C36.2328 8.49999 37.2328 7.55999 38.6128 7.55999C39.9928 7.55999 40.9928 8.49999 40.9928 9.99999C40.9928 11.5 39.9928 12.44 38.6128 12.44Z" fill="#0B0D17"/>
<path d="M47.6937 4.11999C48.6737 4.11999 49.4937 3.29999 49.4937 2.31999C49.4937 1.33999 48.6737 0.519989 47.6937 0.519989C46.7137 0.519989 45.8937 1.33999 45.8937 2.31999C45.8937 3.29999 46.7137 4.11999 47.6937 4.11999ZM46.1937 15H49.1937V4.99999H46.1937V15Z" fill="#0B0D17"/>
<path d="M56.889 3.59999V0.719989C53.569 0.519989 52.029 2.19999 52.029 4.99999H50.689V7.87999H52.029V15H55.029V7.87999H56.889V4.99999H55.029C55.029 3.83999 55.769 3.49999 56.889 3.59999Z" fill="#0B0D17"/>
<path d="M64.6812 4.99999L62.8012 11.12L60.5812 4.99999H57.2812L61.2612 14.54C60.8212 15.76 60.1612 16.2 58.7612 16.2V19C61.5612 19.14 63.3412 17.88 64.4612 14.7L67.8812 4.99999H64.6812Z" fill="#0B0D17"/>
</svg>
